<svg width="528" height="184" viewBox="0 0 528 184" fill="none" xmlns="http://www.w3.org/2000/svg">
<path d="M9.72656 91.4492C9.72656 89.3789 10.1172 86.9375 10.8984 84.125C11.6797 81.2734 12.832 78.3438 14.3555 75.3359C15.8789 72.2891 17.7344 69.2812 19.9219 66.3125C22.1484 63.3047 24.6875 60.6289 27.5391 58.2852C30.3906 55.9414 33.5352 54.0469 36.9727 52.6016C40.4492 51.1562 44.1992 50.4336 48.2227 50.4336C50.0586 50.4336 51.8945 50.5898 53.7305 50.9023C55.6055 51.2148 57.3828 51.6445 59.0625 52.1914C60.7812 52.6992 62.3828 53.3242 63.8672 54.0664C65.3516 54.7695 66.6406 55.5312 67.7344 56.3516C68.5547 56.9766 69.375 57.6406 70.1953 58.3438C71.0156 59.0078 71.7578 59.7695 72.4219 60.6289C73.0859 61.4492 73.6328 62.4062 74.0625 63.5C74.4922 64.5547 74.707 65.7656 74.707 67.1328C74.707 68.2656 74.5117 69.1641 74.1211 69.8281C73.7695 70.4922 73.3789 71.0195 72.9492 71.4102C72.4414 71.8398 71.875 72.1719 71.25 72.4062C70.2734 72.4062 69.4336 72.1133 68.7305 71.5273C68.0273 70.9414 67.3633 70.2773 66.7383 69.5352C66.1523 68.7539 65.5664 67.9727 64.9805 67.1914C64.3945 66.4102 63.75 65.8438 63.0469 65.4922C60.6641 63.5781 58.2227 62.2891 55.7227 61.625C53.2227 60.9609 50.5859 60.6289 47.8125 60.6289C45.5859 60.6289 43.3594 61.1172 41.1328 62.0938C38.9062 63.0703 36.7578 64.3789 34.6875 66.0195C32.6562 67.6602 30.7617 69.5938 29.0039 71.8203C27.2461 74.0078 25.7031 76.332 24.375 78.793C23.0859 81.2539 22.0703 83.7734 21.3281 86.3516C20.5859 88.9297 20.2148 91.4297 20.2148 93.8516C20.2148 98.7734 20.9375 102.973 22.3828 106.449C23.8281 109.887 25.8203 112.719 28.3594 114.945C30.9375 117.133 33.9648 118.734 37.4414 119.75C40.918 120.766 44.707 121.273 48.8086 121.273C52.5195 121.273 55.5078 121.02 57.7734 120.512C60.0781 120.004 61.8359 119.242 63.0469 118.227C64.2969 117.211 65.1172 115.961 65.5078 114.477C65.9375 112.953 66.1523 111.176 66.1523 109.145C66.1523 108.676 66.1328 108.031 66.0938 107.211C66.0938 106.391 66.0742 105.531 66.0352 104.633C66.0352 103.695 66.0156 102.777 65.9766 101.879C65.9766 100.941 65.9766 100.16 65.9766 99.5352C64.1016 99.8477 62.1484 100.023 60.1172 100.062C58.125 100.102 56.25 100.121 54.4922 100.121C53.5938 100.121 52.6562 100.004 51.6797 99.7695C50.7031 99.4961 49.8047 99.1055 48.9844 98.5977C48.2031 98.0898 47.5586 97.4648 47.0508 96.7227C46.543 95.9805 46.2891 95.1211 46.2891 94.1445C46.2891 93.0898 46.4844 92.25 46.875 91.625C47.3047 90.9609 47.8516 90.4336 48.5156 90.043C49.2188 89.6523 50.0195 89.3984 50.918 89.2812C51.8164 89.125 52.7734 89.0469 53.7891 89.0469C54.5703 89.0469 55.4297 89.0859 56.3672 89.1641C57.3438 89.2031 58.2617 89.2617 59.1211 89.3398C60.1367 89.418 61.1328 89.4961 62.1094 89.5742C62.9297 89.5742 63.8281 89.4961 64.8047 89.3398C65.8203 89.1836 66.8359 89.0273 67.8516 88.8711C68.8672 88.6758 69.8633 88.5 70.8398 88.3438C71.8555 88.1875 72.8125 88.1094 73.7109 88.1094C74.4922 88.1094 75.2344 88.2852 75.9375 88.6367C76.6406 88.9883 77.2461 89.457 77.7539 90.043C78.3008 90.5898 78.7305 91.2148 79.043 91.918C79.3555 92.582 79.5117 93.2266 79.5117 93.8516C79.5117 95.1406 79.2383 96.1758 78.6914 96.957C78.1445 97.7383 77.4219 98.3828 76.5234 98.8906C76.4844 101.352 76.4062 103.93 76.2891 106.625C76.1719 109.281 76.1914 111.801 76.3477 114.184C76.4648 115.707 76.5625 116.938 76.6406 117.875C76.7188 118.812 76.7773 119.574 76.8164 120.16C76.8945 120.746 76.9531 121.195 76.9922 121.508C77.0312 121.781 77.0508 122.016 77.0508 122.211C77.0508 123.695 76.9531 124.887 76.7578 125.785C76.5625 126.684 76.2891 127.387 75.9375 127.895C75.5859 128.363 75.1562 128.676 74.6484 128.832C74.1406 128.988 73.5742 129.066 72.9492 129.066C71.8945 129.066 71.0352 128.969 70.3711 128.773C69.707 128.578 69.1406 128.324 68.6719 128.012C68.2422 127.66 67.8906 127.309 67.6172 126.957C67.3828 126.566 67.168 126.195 66.9727 125.844C65.8398 126.469 64.5312 127.094 63.0469 127.719C61.6016 128.344 60.0195 128.91 58.3008 129.418C56.582 129.887 54.7656 130.277 52.8516 130.59C50.9766 130.863 49.043 131 47.0508 131C40.7617 131 35.2734 130.141 30.5859 128.422C25.8984 126.703 22.0117 124.184 18.9258 120.863C15.8398 117.504 13.5352 113.363 12.0117 108.441C10.4883 103.52 9.72656 97.8555 9.72656 91.4492ZM87.1969 123.441C87.1969 122.426 87.2555 121.371 87.3727 120.277C87.4898 119.184 87.5484 118.129 87.5484 117.113C87.5484 114.73 87.4313 112.25 87.1969 109.672C87.0016 107.602 86.8844 105.434 86.8453 103.168C86.8453 100.902 86.9234 98.9102 87.0797 97.1914L89.0133 74.0469C89.1695 72.1719 89.6383 70.6875 90.4195 69.5938C91.2398 68.4609 92.6852 67.8945 94.7555 67.8945C95.6148 67.8945 96.357 68.0508 96.982 68.3633C97.6461 68.6367 98.193 69.0078 98.6227 69.4766C99.0914 69.9453 99.4625 70.4727 99.7359 71.0586C100.009 71.6055 100.205 72.1523 100.322 72.6992C101.923 71.4883 103.681 70.4531 105.595 69.5938C107.509 68.7344 109.482 68.0312 111.513 67.4844C113.545 66.9375 115.595 66.5469 117.666 66.3125C119.736 66.0391 121.748 65.9023 123.701 65.9023C125.341 65.9023 127.216 66.0195 129.326 66.2539C131.435 66.4492 133.427 66.8984 135.302 67.6016C137.177 68.3047 138.759 69.3203 140.048 70.6484C141.338 71.9766 141.982 73.7734 141.982 76.0391C141.982 77.6406 141.474 78.9492 140.459 79.9648C139.482 80.9414 138.173 81.4297 136.533 81.4297C135.283 81.4297 134.306 81.1562 133.603 80.6094C132.9 80.0234 132.275 79.3789 131.728 78.6758C131.494 78.4023 131.22 78.1094 130.908 77.7969C130.595 77.4844 130.146 77.1914 129.56 76.918C129.013 76.6445 128.291 76.4297 127.392 76.2734C126.494 76.1172 125.341 76.0391 123.935 76.0391C119.521 76.0391 115.693 76.5078 112.451 77.4453C109.209 78.3438 106.533 79.7695 104.423 81.7227C102.314 83.6758 100.752 86.1953 99.7359 89.2812C98.7203 92.3281 98.2125 96 98.2125 100.297C98.2125 101.898 98.232 103.422 98.2711 104.867C98.3102 106.273 98.3688 107.68 98.4469 109.086C98.5641 110.492 98.6813 111.918 98.7984 113.363C98.9156 114.809 99.0328 116.352 99.15 117.992C99.2281 119.242 99.3453 120.531 99.5016 121.859C99.6578 123.188 99.7359 124.477 99.7359 125.727C99.7359 126.078 99.6383 126.566 99.443 127.191C99.2477 127.816 98.9156 128.441 98.4469 129.066C98.0172 129.652 97.4313 130.18 96.6891 130.648C95.9859 131.078 95.107 131.293 94.0523 131.293C92.6852 131.293 91.5523 131.137 90.6539 130.824C89.7945 130.512 89.0914 130.043 88.5445 129.418C88.0367 128.754 87.6852 127.934 87.4898 126.957C87.2945 125.941 87.1969 124.77 87.1969 123.441ZM156.23 54.125C155.566 54.125 154.609 53.9687 153.359 53.6562C152.148 53.3047 150.937 52.7969 149.726 52.1328C148.554 51.4688 147.519 50.6289 146.62 49.6133C145.761 48.5977 145.331 47.4062 145.331 46.0391C145.331 45.375 145.468 44.6914 145.741 43.9883C146.015 43.2852 146.386 42.6406 146.855 42.0547C147.363 41.4688 147.968 41 148.671 40.6484C149.374 40.2578 150.155 40.0625 151.015 40.0625C151.757 40.0625 152.675 40.3555 153.769 40.9414C154.902 41.5273 155.976 42.2891 156.991 43.2266C158.007 44.125 158.886 45.1406 159.628 46.2734C160.37 47.3672 160.741 48.4414 160.741 49.4961C160.741 49.7695 160.644 50.1602 160.448 50.668C160.292 51.1758 160.019 51.6836 159.628 52.1914C159.277 52.6992 158.808 53.1484 158.222 53.5391C157.675 53.9297 157.011 54.125 156.23 54.125ZM148.085 126.84C148.007 126.527 147.909 125.922 147.792 125.023C147.714 124.125 147.616 122.641 147.499 120.57C147.421 118.5 147.343 115.707 147.265 112.191C147.226 108.637 147.206 104.066 147.206 98.4805C147.206 94.1055 147.46 89.6328 147.968 85.0625C148.515 80.4531 149.179 76.0977 149.96 71.9961C149.999 71.6445 150.136 71.1758 150.37 70.5898C150.644 69.9648 150.995 69.3594 151.425 68.7734C151.894 68.1484 152.441 67.6211 153.066 67.1914C153.691 66.7227 154.413 66.4883 155.234 66.4883C156.093 66.4883 156.796 66.6445 157.343 66.957C157.89 67.2305 158.3 67.6406 158.573 68.1875C158.886 68.6953 159.101 69.3008 159.218 70.0039C159.335 70.668 159.394 71.3711 159.394 72.1133C159.394 74.1836 159.316 76.4688 159.159 78.9688C159.003 81.4297 158.827 83.9492 158.632 86.5273C158.476 89.0664 158.32 91.5664 158.163 94.0273C158.046 96.4883 157.988 98.7148 157.988 100.707C157.988 102.465 158.105 104.457 158.339 106.684C158.613 108.91 158.905 111.195 159.218 113.539C159.57 115.883 159.863 118.188 160.097 120.453C160.37 122.68 160.507 124.711 160.507 126.547C160.507 128.461 160.019 129.945 159.042 131C158.066 132.016 156.972 132.523 155.761 132.523C153.417 132.523 151.659 132.094 150.488 131.234C149.316 130.414 148.515 128.949 148.085 126.84ZM169.305 102.348C169.305 99.418 169.559 96.5078 170.067 93.6172C170.614 90.7266 171.415 87.9727 172.47 85.3555C173.563 82.7383 174.93 80.3164 176.571 78.0898C178.212 75.8633 180.126 73.9492 182.313 72.3477C184.54 70.707 187.04 69.4375 189.813 68.5391C192.626 67.6016 195.731 67.1328 199.13 67.1328C202.88 67.1328 206.239 67.6211 209.208 68.5977C212.216 69.5352 214.833 70.8047 217.059 72.4062C219.325 73.9688 221.22 75.7656 222.743 77.7969C224.266 79.8281 225.438 81.9375 226.259 84.125C226.688 85.2969 227.001 86.2148 227.196 86.8789C227.43 87.5039 227.665 87.8945 227.899 88.0508C229.188 88.9102 230.184 89.9062 230.887 91.0391C231.63 92.1719 232.001 93.2461 232.001 94.2617L231.942 115.297C231.786 117.523 231.61 120.219 231.415 123.383C231.259 126.508 230.966 130.316 230.536 134.809C230.302 137.23 230.048 139.652 229.774 142.074C229.501 144.496 229.091 146.82 228.544 149.047C228.036 151.312 227.333 153.402 226.434 155.316C225.536 157.23 224.345 158.891 222.86 160.297C221.415 161.742 219.618 162.875 217.47 163.695C215.321 164.516 212.723 164.926 209.677 164.926C208.973 164.926 207.938 164.867 206.571 164.75C205.243 164.672 203.778 164.496 202.177 164.223C200.575 163.949 198.934 163.598 197.255 163.168C195.614 162.738 194.11 162.191 192.743 161.527C191.376 160.902 190.262 160.141 189.403 159.242C188.544 158.344 188.114 157.289 188.114 156.078C188.114 155.336 188.173 154.633 188.29 153.969C188.407 153.305 188.641 152.719 188.993 152.211C189.345 151.742 189.852 151.352 190.516 151.039C191.18 150.766 192.059 150.629 193.153 150.629C193.973 150.629 194.774 150.883 195.555 151.391C196.376 151.938 197.274 152.406 198.251 152.797C199.227 153.188 200.341 153.48 201.591 153.676C202.88 153.871 204.11 154.008 205.282 154.086C206.454 154.203 207.489 154.262 208.387 154.262C209.286 154.262 209.891 154.262 210.204 154.262C212.001 154.262 213.466 153.695 214.598 152.562C215.77 151.43 216.708 150.004 217.411 148.285C218.114 146.605 218.602 144.75 218.876 142.719C219.188 140.688 219.403 138.754 219.52 136.918C219.559 136.059 219.637 135.062 219.755 133.93C219.872 132.797 219.989 131.605 220.106 130.355C220.223 129.066 220.341 127.777 220.458 126.488C220.575 125.199 220.653 123.988 220.692 122.855C218.348 125.746 215.458 128.09 212.02 129.887C208.583 131.645 204.481 132.523 199.716 132.523C194.833 132.523 190.497 131.898 186.708 130.648C182.958 129.398 179.794 127.523 177.216 125.023C174.637 122.523 172.665 119.398 171.298 115.648C169.97 111.859 169.305 107.426 169.305 102.348ZM180.555 102.465C180.555 106.527 181.083 109.867 182.137 112.484C183.231 115.102 184.696 117.172 186.532 118.695C188.407 120.219 190.595 121.293 193.095 121.918C195.595 122.504 198.27 122.797 201.122 122.797C204.364 122.797 207.177 122.094 209.559 120.688C211.942 119.242 213.954 117.445 215.595 115.297C217.235 113.148 218.505 110.805 219.403 108.266C220.302 105.727 220.868 103.344 221.102 101.117C221.22 100.023 221.161 99.0664 220.927 98.2461C220.692 97.3867 220.419 96.5859 220.106 95.8438C219.716 94.9844 219.364 94.1445 219.052 93.3242C218.739 92.4648 218.583 91.5859 218.583 90.6875C218.583 89.4766 218.134 88.1094 217.235 86.5859C216.376 85.0234 215.165 83.5586 213.602 82.1914C212.079 80.8242 210.262 79.6719 208.153 78.7344C206.044 77.7578 203.778 77.2695 201.356 77.2695C197.333 77.2695 193.973 77.9922 191.278 79.4375C188.622 80.8438 186.493 82.7188 184.891 85.0625C183.329 87.4062 182.216 90.1016 181.552 93.1484C180.887 96.1562 180.555 99.2617 180.555 102.465ZM243.788 120.629C243.592 119.73 243.495 118.754 243.495 117.699C243.495 116.645 243.495 115.609 243.495 114.594C243.495 111.977 243.436 109.398 243.319 106.859C243.202 104.281 243.065 101.723 242.909 99.1836C242.791 96.6445 242.674 94.0859 242.557 91.5078C242.479 88.9297 242.479 86.3125 242.557 83.6562L243.026 53.0703C243.026 50.4922 243.416 48.4023 244.198 46.8008C244.979 45.1992 246.385 44.3984 248.416 44.3984C249.159 44.3984 249.823 44.5547 250.409 44.8672C251.034 45.1797 251.561 45.5898 251.991 46.0977C252.42 46.5664 252.752 47.0938 252.987 47.6797C253.221 48.2656 253.338 48.832 253.338 49.3789V92.3867C253.338 96.6445 253.416 100.922 253.573 105.219C253.768 109.477 254.256 113.793 255.038 118.168C255.155 118.871 255.33 119.457 255.565 119.926C255.838 120.355 256.131 120.707 256.444 120.98C256.795 121.215 257.166 121.371 257.557 121.449C257.948 121.527 258.319 121.566 258.67 121.566C259.256 121.566 259.745 121.449 260.135 121.215C260.526 120.941 260.819 120.688 261.014 120.453C261.248 120.18 261.483 119.926 261.717 119.691C261.991 119.418 262.284 119.184 262.596 118.988C262.909 118.754 263.28 118.578 263.709 118.461C264.178 118.344 264.725 118.285 265.35 118.285C266.053 118.285 266.659 118.441 267.166 118.754C267.674 119.027 268.104 119.398 268.455 119.867C268.807 120.336 269.061 120.863 269.217 121.449C269.413 122.035 269.51 122.621 269.51 123.207C269.51 124.418 269.139 125.531 268.397 126.547C267.694 127.523 266.795 128.363 265.702 129.066C264.608 129.77 263.416 130.316 262.127 130.707C260.838 131.098 259.627 131.293 258.495 131.293C254.432 131.371 251.151 130.512 248.651 128.715C246.19 126.879 244.569 124.184 243.788 120.629ZM284.344 54.125C283.68 54.125 282.723 53.9687 281.473 53.6562C280.262 53.3047 279.051 52.7969 277.84 52.1328C276.668 51.4688 275.633 50.6289 274.734 49.6133C273.875 48.5977 273.445 47.4062 273.445 46.0391C273.445 45.375 273.582 44.6914 273.855 43.9883C274.129 43.2852 274.5 42.6406 274.969 42.0547C275.477 41.4688 276.082 41 276.785 40.6484C277.488 40.2578 278.27 40.0625 279.129 40.0625C279.871 40.0625 280.789 40.3555 281.883 40.9414C283.016 41.5273 284.09 42.2891 285.105 43.2266C286.121 44.125 287 45.1406 287.742 46.2734C288.484 47.3672 288.855 48.4414 288.855 49.4961C288.855 49.7695 288.758 50.1602 288.562 50.668C288.406 51.1758 288.133 51.6836 287.742 52.1914C287.391 52.6992 286.922 53.1484 286.336 53.5391C285.789 53.9297 285.125 54.125 284.344 54.125ZM276.199 126.84C276.121 126.527 276.023 125.922 275.906 125.023C275.828 124.125 275.73 122.641 275.613 120.57C275.535 118.5 275.457 115.707 275.379 112.191C275.34 108.637 275.32 104.066 275.32 98.4805C275.32 94.1055 275.574 89.6328 276.082 85.0625C276.629 80.4531 277.293 76.0977 278.074 71.9961C278.113 71.6445 278.25 71.1758 278.484 70.5898C278.758 69.9648 279.109 69.3594 279.539 68.7734C280.008 68.1484 280.555 67.6211 281.18 67.1914C281.805 66.7227 282.527 66.4883 283.348 66.4883C284.207 66.4883 284.91 66.6445 285.457 66.957C286.004 67.2305 286.414 67.6406 286.688 68.1875C287 68.6953 287.215 69.3008 287.332 70.0039C287.449 70.668 287.508 71.3711 287.508 72.1133C287.508 74.1836 287.43 76.4688 287.273 78.9688C287.117 81.4297 286.941 83.9492 286.746 86.5273C286.59 89.0664 286.434 91.5664 286.277 94.0273C286.16 96.4883 286.102 98.7148 286.102 100.707C286.102 102.465 286.219 104.457 286.453 106.684C286.727 108.91 287.02 111.195 287.332 113.539C287.684 115.883 287.977 118.188 288.211 120.453C288.484 122.68 288.621 124.711 288.621 126.547C288.621 128.461 288.133 129.945 287.156 131C286.18 132.016 285.086 132.523 283.875 132.523C281.531 132.523 279.773 132.094 278.602 131.234C277.43 130.414 276.629 128.949 276.199 126.84ZM297.42 106.039C297.42 102.992 297.849 99.8281 298.709 96.5469C299.607 93.2266 300.877 90.1406 302.517 87.2891C304.08 84.4375 305.994 81.7617 308.259 79.2617C310.564 76.7617 313.123 74.5938 315.935 72.7578C318.748 70.8828 321.775 69.418 325.017 68.3633C328.298 67.2695 331.716 66.7227 335.271 66.7227C337.966 66.7227 340.564 67.0938 343.064 67.8359C345.564 68.5391 347.908 69.5156 350.095 70.7656C352.283 72.0156 354.275 73.5 356.072 75.2188C357.908 76.9375 359.47 78.793 360.759 80.7852C362.048 82.7383 363.045 84.7891 363.748 86.9375C364.451 89.0859 364.802 91.2344 364.802 93.3828C364.802 95.2969 364.685 96.9961 364.451 98.4805C364.255 99.9258 364.002 101.371 363.689 102.816C363.455 104.301 363.22 105.844 362.986 107.445C362.752 109.008 362.634 110.844 362.634 112.953C362.634 114.789 362.771 116.312 363.045 117.523C363.318 118.695 363.709 119.652 364.216 120.395C364.724 121.137 365.33 121.664 366.033 121.977C366.775 122.25 367.595 122.387 368.494 122.387C368.728 122.387 369.021 122.328 369.373 122.211C369.724 122.055 370.056 121.898 370.369 121.742C370.681 121.547 370.955 121.371 371.189 121.215C371.423 121.02 371.58 120.863 371.658 120.746C372.087 120.316 372.498 119.945 372.888 119.633C373.318 119.281 373.884 119.105 374.587 119.105C375.994 119.105 377.048 119.438 377.752 120.102C378.494 120.766 378.865 121.859 378.865 123.383C378.865 124.32 378.572 125.297 377.986 126.312C377.439 127.328 376.658 128.266 375.642 129.125C374.627 129.945 373.416 130.629 372.009 131.176C370.603 131.723 369.041 131.996 367.322 131.996C363.884 131.996 360.935 131.039 358.474 129.125C356.052 127.172 354.314 124.516 353.259 121.156C351.814 122.68 350.232 124.145 348.513 125.551C346.795 126.918 344.9 128.129 342.83 129.184C340.759 130.199 338.455 131 335.916 131.586C333.416 132.211 330.642 132.523 327.595 132.523C325.291 132.523 322.927 132.211 320.505 131.586C318.123 130.961 315.798 130.082 313.533 128.949C311.306 127.816 309.216 126.449 307.263 124.848C305.31 123.207 303.591 121.41 302.107 119.457C300.662 117.504 299.509 115.395 298.65 113.129C297.83 110.863 297.42 108.5 297.42 106.039ZM308.377 105.922C308.377 108.344 309.021 110.57 310.31 112.602C311.638 114.633 313.337 116.371 315.408 117.816C317.478 119.262 319.783 120.395 322.322 121.215C324.9 121.996 327.42 122.387 329.88 122.387C333.162 122.387 336.17 121.762 338.904 120.512C341.677 119.262 344.041 117.641 345.994 115.648C347.986 113.656 349.529 111.43 350.623 108.969C351.716 106.469 352.263 104.008 352.263 101.586C352.263 100.219 352.556 99.0273 353.142 98.0117C353.767 96.957 354.353 95.9609 354.9 95.0234C355.056 94.8281 355.134 94.5352 355.134 94.1445C355.173 93.7148 355.173 93.2852 355.134 92.8555C355.134 92.3867 355.115 91.957 355.076 91.5664C355.037 91.1758 355.017 90.9023 355.017 90.7461C355.017 89.8867 354.724 88.9492 354.138 87.9336C353.552 86.918 352.752 85.9023 351.736 84.8867C350.759 83.8711 349.627 82.8945 348.337 81.957C347.087 80.9805 345.798 80.1211 344.47 79.3789C343.142 78.6367 341.814 78.0508 340.486 77.6211C339.158 77.1523 337.966 76.918 336.912 76.918C333.943 76.918 331.17 77.3281 328.591 78.1484C326.052 78.9688 323.728 80.082 321.619 81.4883C319.509 82.8945 317.615 84.5547 315.935 86.4688C314.295 88.3438 312.908 90.3555 311.775 92.5039C310.681 94.6523 309.841 96.8789 309.255 99.1836C308.67 101.488 308.377 103.734 308.377 105.922ZM412.214 131.879C408.347 131.879 405.144 131.117 402.605 129.594C400.066 128.031 398.015 125.961 396.452 123.383C394.89 120.766 393.718 117.797 392.937 114.477C392.155 111.117 391.609 107.641 391.296 104.047C390.984 100.414 390.808 96.8008 390.769 93.207C390.73 89.6133 390.671 86.293 390.593 83.2461C389.538 83.2461 388.581 83.2461 387.722 83.2461C386.902 83.2461 386.081 83.2656 385.261 83.3047C384.792 83.3438 384.362 83.3828 383.972 83.4219C383.581 83.4219 383.152 83.4414 382.683 83.4805C382.253 83.4805 381.745 83.5 381.159 83.5391C380.612 83.5391 379.929 83.5391 379.109 83.5391C378.64 83.5391 378.015 83.4219 377.234 83.1875C376.452 82.9531 375.671 82.6211 374.89 82.1914C374.109 81.7617 373.425 81.2344 372.839 80.6094C372.292 79.9453 372.019 79.2031 372.019 78.3828C372.019 77.5625 372.195 76.8008 372.546 76.0977C372.898 75.3945 373.366 74.8086 373.952 74.3398C374.577 73.832 375.3 73.4414 376.12 73.168C376.941 72.8945 377.8 72.7578 378.698 72.7578L391.003 73.0508C391.12 72.0742 391.237 71.0977 391.355 70.1211C391.472 69.1445 391.57 68.1875 391.648 67.25C391.765 66.1172 391.843 65.0625 391.882 64.0859C391.921 63.1094 391.98 62.1719 392.058 61.2734C392.136 60.3359 392.214 59.418 392.292 58.5195C392.409 57.582 392.585 56.6055 392.82 55.5898C392.937 54.9258 393.21 54.2813 393.64 53.6562C394.07 52.9922 394.558 52.4063 395.105 51.8984C395.691 51.3906 396.296 50.9805 396.921 50.668C397.585 50.3555 398.21 50.1992 398.796 50.1992C399.265 50.1992 399.753 50.3164 400.261 50.5508C400.769 50.7852 401.237 51.1367 401.667 51.6055C402.097 52.0352 402.448 52.5625 402.722 53.1875C403.034 53.7734 403.191 54.4375 403.191 55.1797C403.191 56.7422 403.171 58.0508 403.132 59.1055C403.132 60.1602 403.093 61.0586 403.015 61.8008C402.976 62.543 402.917 63.1875 402.839 63.7344C402.761 64.2812 402.683 64.8281 402.605 65.375C402.527 65.8047 402.448 66.2734 402.37 66.7812C402.331 67.25 402.273 67.7969 402.195 68.4219C402.155 69.0469 402.097 69.7695 402.019 70.5898C401.941 71.3711 401.843 72.3086 401.726 73.4023C403.952 73.3633 406.062 73.3242 408.054 73.2852C410.085 73.207 412.077 73.1484 414.03 73.1094C415.984 73.0312 417.976 72.9727 420.007 72.9336C422.038 72.8945 424.206 72.875 426.511 72.875C427.292 72.875 427.976 73.0898 428.562 73.5195C429.187 73.9102 429.695 74.3984 430.085 74.9844C430.515 75.5703 430.827 76.1953 431.023 76.8594C431.257 77.4844 431.374 78.0312 431.374 78.5C431.374 79.3203 431.198 80.0625 430.847 80.7266C430.495 81.3516 430.066 81.8789 429.558 82.3086C429.05 82.7383 428.484 83.0508 427.859 83.2461C427.234 83.4414 426.667 83.5391 426.159 83.5391L402.195 83.1289C402.038 83.2852 401.96 83.4609 401.96 83.6562C401.96 85.7266 401.921 88.1094 401.843 90.8047C401.765 93.4609 401.745 96.1758 401.784 98.9492C401.862 101.723 402.038 104.457 402.312 107.152C402.585 109.809 403.073 112.191 403.777 114.301C404.519 116.371 405.515 118.051 406.765 119.34C408.015 120.629 409.655 121.273 411.687 121.273C412.351 121.273 413.132 121.156 414.03 120.922C414.968 120.648 415.886 120.336 416.784 119.984C417.683 119.633 418.523 119.242 419.304 118.812C420.085 118.383 420.691 117.992 421.12 117.641C421.55 117.25 422.116 116.898 422.82 116.586C423.523 116.273 424.109 116.117 424.577 116.117C426.062 116.117 426.999 116.488 427.39 117.23C427.82 117.934 428.034 118.91 428.034 120.16C428.034 120.59 427.937 121.117 427.741 121.742C427.546 122.328 427.292 122.816 426.98 123.207C426.237 124.145 425.261 125.141 424.05 126.195C422.878 127.211 421.609 128.148 420.241 129.008C418.874 129.828 417.487 130.512 416.081 131.059C414.675 131.605 413.386 131.879 412.214 131.879ZM436.071 106.039C436.071 102.992 436.501 99.8281 437.36 96.5469C438.259 93.2266 439.528 90.1406 441.169 87.2891C442.731 84.4375 444.645 81.7617 446.911 79.2617C449.216 76.7617 451.774 74.5938 454.587 72.7578C457.399 70.8828 460.427 69.418 463.669 68.3633C466.95 67.2695 470.368 66.7227 473.923 66.7227C476.618 66.7227 479.216 67.0938 481.716 67.8359C484.216 68.5391 486.559 69.5156 488.747 70.7656C490.934 72.0156 492.927 73.5 494.723 75.2188C496.559 76.9375 498.122 78.793 499.411 80.7852C500.7 82.7383 501.696 84.7891 502.399 86.9375C503.102 89.0859 503.454 91.2344 503.454 93.3828C503.454 95.2969 503.337 96.9961 503.102 98.4805C502.907 99.9258 502.653 101.371 502.341 102.816C502.106 104.301 501.872 105.844 501.638 107.445C501.403 109.008 501.286 110.844 501.286 112.953C501.286 114.789 501.423 116.312 501.696 117.523C501.97 118.695 502.36 119.652 502.868 120.395C503.376 121.137 503.981 121.664 504.684 121.977C505.427 122.25 506.247 122.387 507.145 122.387C507.38 122.387 507.673 122.328 508.024 122.211C508.376 122.055 508.708 121.898 509.02 121.742C509.333 121.547 509.606 121.371 509.841 121.215C510.075 121.02 510.231 120.863 510.309 120.746C510.739 120.316 511.149 119.945 511.54 119.633C511.97 119.281 512.536 119.105 513.239 119.105C514.645 119.105 515.7 119.438 516.403 120.102C517.145 120.766 517.516 121.859 517.516 123.383C517.516 124.32 517.223 125.297 516.638 126.312C516.091 127.328 515.309 128.266 514.294 129.125C513.278 129.945 512.067 130.629 510.661 131.176C509.255 131.723 507.692 131.996 505.973 131.996C502.536 131.996 499.587 131.039 497.126 129.125C494.704 127.172 492.966 124.516 491.911 121.156C490.466 122.68 488.884 124.145 487.165 125.551C485.446 126.918 483.552 128.129 481.481 129.184C479.411 130.199 477.106 131 474.567 131.586C472.067 132.211 469.294 132.523 466.247 132.523C463.942 132.523 461.579 132.211 459.157 131.586C456.774 130.961 454.45 130.082 452.184 128.949C449.958 127.816 447.868 126.449 445.915 124.848C443.962 123.207 442.243 121.41 440.759 119.457C439.313 117.504 438.161 115.395 437.302 113.129C436.481 110.863 436.071 108.5 436.071 106.039ZM447.028 105.922C447.028 108.344 447.673 110.57 448.962 112.602C450.29 114.633 451.989 116.371 454.059 117.816C456.13 119.262 458.434 120.395 460.973 121.215C463.552 121.996 466.071 122.387 468.532 122.387C471.813 122.387 474.821 121.762 477.555 120.512C480.329 119.262 482.692 117.641 484.645 115.648C486.638 113.656 488.18 111.43 489.274 108.969C490.368 106.469 490.915 104.008 490.915 101.586C490.915 100.219 491.208 99.0273 491.794 98.0117C492.419 96.957 493.005 95.9609 493.552 95.0234C493.708 94.8281 493.786 94.5352 493.786 94.1445C493.825 93.7148 493.825 93.2852 493.786 92.8555C493.786 92.3867 493.766 91.957 493.727 91.5664C493.688 91.1758 493.669 90.9023 493.669 90.7461C493.669 89.8867 493.376 88.9492 492.79 87.9336C492.204 86.918 491.403 85.9023 490.388 84.8867C489.411 83.8711 488.278 82.8945 486.989 81.957C485.739 80.9805 484.45 80.1211 483.122 79.3789C481.794 78.6367 480.466 78.0508 479.138 77.6211C477.809 77.1523 476.618 76.918 475.563 76.918C472.595 76.918 469.821 77.3281 467.243 78.1484C464.704 78.9688 462.38 80.082 460.27 81.4883C458.161 82.8945 456.266 84.5547 454.587 86.4688C452.946 88.3438 451.559 90.3555 450.427 92.5039C449.333 94.6523 448.493 96.8789 447.907 99.1836C447.321 101.488 447.028 103.734 447.028 105.922Z" fill="#FF7777"/>
</svg>
